<svg width="11" height="12" viewBox="0 0 11 12" fill="none" xmlns="http://www.w3.org/2000/svg">
<path d="M6.5219 0.85498L7.36225 2.15593L8.91065 2.23188L8.98905 3.78028L10.29 4.62063L9.5844 5.99998L10.29 7.37688L8.98905 8.21723L8.9131 9.76563L7.3647 9.84403L6.52435 11.145L5.145 10.4394L3.7681 11.145L2.92775 9.84403L1.37935 9.76808L1.30095 8.21968L0 7.37933L0.7056 5.99998L0 4.62308L1.30095 3.78273L1.3769 2.23433L2.9253 2.15593L3.76565 0.85498L5.145 1.56058L6.5219 0.85498Z" fill="#42A5F5"/>
<path d="M4.50558 7.77623L2.91553 6.18618L3.43493 5.66678L4.51538 6.74478L6.85758 4.47363L7.36963 5.00038L4.50558 7.77623Z" fill="white"/>
</svg>
